# xmcd
#
# Track frame offsets: 
#        300
#        17446
#        35912
#        48128
#        66419
#        81585
#        102986
#        121644
#        144053
#
# Disc length: 2160 seconds
#
# Revision: 4
# Processed by: cddbd v1.5.2PL0 Copyright (c) Steve Scherf et al.
# Submitted via: ExactAudioCopy v1.0b1
#
DISCID=72086c09
DTITLE=Johnny Copeland - Boom, Boom
DYEAR=1989
DGENRE=Blues
TTITLE0=Nobody But You
TTITLE1=Daily Bread
TTITLE2=Texas Party
TTITLE3=Flamin' Mamie
TTITLE4=Pie In The Sky
TTITLE5=I Was Born All Over
TTITLE6=Cut Off My Right Arm
TTITLE7=Beat the Boom Boom Baby
TTITLE8=Blues Ain't Nothin'
EXTD=
EXTT0=
EXTT1=
EXTT2=
EXTT3=
EXTT4=
EXTT5=
EXTT6=
EXTT7=
EXTT8=
PLAYORDER=
